<svg width="38" height="57" viewBox="0 0 38 57" fill="none" xmlns="http://www.w3.org/2000/svg">
<path d="M19 28.5C19 24.8478 20.0536 21.3043 22.0493 18.6612C24.045 16.018 26.8233 14.4662 29.8125 14.4662C32.8017 14.4662 35.58 16.018 37.5757 18.6612C39.5714 21.3043 40.625 24.8478 40.625 28.5C40.625 32.1522 39.5714 35.6957 37.5757 38.3388C35.58 40.982 32.8017 42.5338 29.8125 42.5338C26.8233 42.5338 24.045 40.982 22.0493 38.3388C20.0536 35.6957 19 32.1522 19 28.5Z" fill="#1ABCFE"/>
<path d="M-2.625 42.5338C-2.625 38.8815 -1.57143 35.338 0.424264 32.6948C2.42 30.0517 5.19833 28.5 8.1875 28.5H19V42.5338H8.1875C5.19833 42.5338 2.42 40.982 0.424264 38.3388C-1.57143 35.6957 -2.625 32.1522 -2.625 28.5V42.5338Z" fill="#0ACF83"/>
<path d="M-2.625 14.4662C-2.625 10.814 -1.57143 7.2705 0.424264 4.62737C2.42 1.98425 5.19833 0.432496 8.1875 0.432495H19V28.5H8.1875C5.19833 28.5 2.42 26.9482 0.424264 24.3051C-1.57143 21.662 -2.625 18.1185 -2.625 14.4662Z" fill="#FF7262"/>
<path d="M19 0.432495H29.8125C32.8017 0.432495 35.58 1.98425 37.5757 4.62737C39.5714 7.2705 40.625 10.814 40.625 14.4662C40.625 18.1185 39.5714 21.662 37.5757 24.3051C35.58 26.9482 32.8017 28.5 29.8125 28.5H19V0.432495Z" fill="#F24E1E"/>
</svg>