<svg width="64" height="64" viewBox="0 0 64 64" fill="none" xmlns="http://www.w3.org/2000/svg">
<path d="M32 35.2012C33.7625 35.2012 35.2 33.7637 35.2 32.0012C35.2 30.2387 33.7625 28.8012 32 28.8012C30.2375 28.8012 28.8 30.2387 28.8 32.0012C28.8 33.7637 30.2375 35.2012 32 35.2012Z" fill="#61DAFB"/>
<path d="M32 41.6011C46.3875 41.6011 58 37.2161 58 32.0011C58 26.7861 46.3875 22.4011 32 22.4011C17.6125 22.4011 6 26.7861 6 32.0011C6 37.2161 17.6125 41.6011 32 41.6011Z" stroke="#61DAFB" stroke-width="2"/>
<path d="M24.8531 36.8012C31.997 50.0637 41.1094 58.4012 45.427 56.2937C49.7446 54.1862 48.0582 42.4487 40.9143 29.1862C33.7705 15.9237 24.658 7.58623 20.3404 9.69373C16.0229 11.8012 17.7092 23.5387 24.8531 36.8012Z" stroke="#61DAFB" stroke-width="2"/>
<path d="M24.8531 29.1862C17.7092 42.4487 16.0229 54.1862 20.3404 56.2937C24.658 58.4012 33.7705 50.0637 40.9143 36.8012C48.0582 23.5387 49.7446 11.8012 45.427 9.69373C41.1094 7.58623 31.997 15.9237 24.8531 29.1862Z" stroke="#61DAFB" stroke-width="2"/>
</svg>