<svg width="64" height="64" viewBox="0 0 64 64" fill="none" xmlns="http://www.w3.org/2000/svg">
<path d="M3.89258 32.0003C3.89258 46.8983 15.1025 59.1083 30.0005 60.0763V3.92432C15.1025 4.89232 3.89258 17.1023 3.89258 32.0003Z" fill="#2EAEDC"/>
<path d="M33.9766 60.0763C48.4646 59.1243 60.1046 46.9623 60.1046 32.0003C60.1046 17.0383 48.4646 4.87632 33.9766 3.92432V60.0763Z" fill="#2EAEDC"/>
<path d="M3.89258 32.0003C3.89258 34.5722 4.27051 37.0626 4.97754 39.4037L20.2505 7.1543C10.5254 11.2275 3.89258 20.8654 3.89258 32.0003Z" fill="#0089BF"/>
<path d="M42.7344 8.33609C39.7225 7.31009 36.4605 6.74609 33.0464 6.74609C31.5785 6.74609 30.1425 6.87209 28.7505 7.10409L39.3745 38.6561L42.7344 8.33609Z" fill="#0089BF"/>
<path d="M25.0293 53.8081L32.0013 33.2561L39.6693 53.3441C42.6813 51.4881 45.2213 48.9801 47.0773 45.9681L32.0013 6.74609C18.2813 6.74609 7.1543 17.8731 7.1543 31.5931C7.1543 43.5121 14.5623 53.5841 25.0293 53.8081Z" fill="#0089BF"/>
<path d="M6.74609 32.0002C6.74609 45.7202 17.8731 56.8472 31.5931 56.8472C36.9971 56.8472 41.9931 55.0232 46.0021 51.9792L32.0001 15.3672L6.74609 32.0002Z" fill="#00557A"/>
</svg>